<?xml version="1.0" encoding="UTF-8"?>
<svg id="Layer_1" xmlns="http://www.w3.org/2000/svg" version="1.1" xmlns:xlink="http://www.w3.org/1999/xlink" viewBox="0 0 160 160">
  <!-- Generator: Adobe Illustrator 29.7.1, SVG Export Plug-In . SVG Version: 2.1.1 Build 8)  -->
  <defs>
    <style>
      .st0, .st1, .st2 {
        mix-blend-mode: multiply;
      }

      .st0, .st3 {
        fill: #c6dd7f;
      }

      .st4 {
        fill: none;
      }

      .st1, .st5 {
        fill: #e9ddb7;
      }

      .st6 {
        fill: url(#Alyssa);
        stroke: #1b1464;
        stroke-miterlimit: 10;
        stroke-width: .25px;
      }

      .st7, .st2 {
        fill: #a6d0e4;
      }
    </style>
    <pattern id="Alyssa" x="0" y="0" width="144.13" height="138.36" patternUnits="userSpaceOnUse" viewBox="0 0 144.13 138.36">
      <g>
        <rect class="st4" x="0" width="144.13" height="138.36"/>
        <path class="st0" d="M211.07,158.52c-11.76-1.38-19.37.35-22.65,3.11-3.02,2.54-4.96,5.41-2.25,11.93,2.94,7.09,1.53,14.73-5.54,15.91-6.22,1.04-10.89-4.84-11.24-12.28-.24-5.18-1.9-8.3-5.53-7.61-3.63.69-4.63,5.9-3.63,11.76,1.38,8.13,5.54,11.76,6.23,20.23.49,6.05-2.94,13.66-12.45,15.04-9.3,1.35-15.91-4.32-16.6-10.55-.73-6.59,3.63-10.89,3.11-17.64-.52-6.75-4.01-10.17-5.88-17.29-2.77-10.55,1.21-19.02,7.78-22.65,14.75-8.15,22.83,3.64,35.97,1.56,10.9-1.73,23.35-18.16,33.03-19.54,8.23-1.17,13.83,4.67,15.04,14.01,1.21,9.34-4.74,15.26-15.39,14.01ZM168.88,159.04c0-2.29-1.86-4.15-4.15-4.15s-4.15,1.86-4.15,4.15,1.86,4.15,4.15,4.15,4.15-1.86,4.15-4.15ZM218.34,143.65c0-.96-.78-1.73-1.73-1.73s-1.73.77-1.73,1.73.77,1.73,1.73,1.73,1.73-.77,1.73-1.73Z"/>
        <g>
          <path class="st1" d="M48.83,139.33c0,7.17,4.59,13.81-1,16.33-8.5,3.83-28-14.33-28-36.17,0-12,8.67-19,17.83-19,12.33,0,18,8.17,18,17.5s-6.83,13.14-6.83,21.33ZM43.42,133.96c0-1.15-.93-2.08-2.07-2.08s-2.08.93-2.08,2.08.93,2.08,2.08,2.08,2.07-.93,2.07-2.08Z"/>
          <path class="st2" d="M123.53,162.83c-7.87,2.74-19.44-15.3-17.67-27.02,1.24-8.23,7.12-13.19,13.09-14.22,7.53-1.3,12.9,2.6,13.3,7.24.55,6.31-3.63,7.52-4.22,14.96-.56,7.13,3.69,16.19-4.49,19.03ZM119.74,135.32c0-1.43-1.16-2.59-2.59-2.59s-2.59,1.16-2.59,2.59,1.16,2.59,2.59,2.59,2.59-1.16,2.59-2.59Z"/>
          <path class="st1" d="M19.39,140.36c0,1.43-1.16,2.59-2.59,2.59s-2.59-1.16-2.59-2.59,1.16-2.59,2.59-2.59,2.59,1.16,2.59,2.59Z"/>
          <path class="st2" d="M84.61,132.64c.74,8.1,12.67,7.02,17.9,14.21,10.52,14.47-1.22,46.37-21.63,46.37-11.74,0-24.22-9.72-24.22-29.22,0-15.83,10.17-21.5,8.25-42.17-1.01-10.83-12.5-20.34-12.5-34.75,0-5.92,3.59-13.45,11.55-13.45,7.05,0,10.82,5.95,10.82,12.9s-5.38,15.74,1.37,19.05c5.24,2.57,13.21-4.77,19.5-6.75,5.19-1.64,12.39.22,14.75,8.5,2.53,8.88-3.25,14.75-11.59,16.69-6.32,1.48-14.8,2.17-14.21,8.61ZM68.62,102.08c0-1.82-1.47-3.29-3.29-3.29s-3.29,1.47-3.29,3.29,1.47,3.29,3.29,3.29,3.29-1.47,3.29-3.29ZM94.61,111.78c1.29,0,2.33-1.04,2.33-2.33s-1.04-2.33-2.33-2.33-2.33,1.04-2.33,2.33,1.04,2.33,2.33,2.33ZM74.62,171.45c0-1.82-1.47-3.29-3.29-3.29s-3.29,1.47-3.29,3.29,1.47,3.29,3.29,3.29,3.29-1.47,3.29-3.29Z"/>
          <path class="st0" d="M66.94,158.52c-11.76-1.38-19.37.35-22.65,3.11-3.02,2.54-4.95,5.41-2.25,11.93,2.94,7.09,1.53,14.73-5.54,15.91-6.22,1.04-10.89-4.84-11.24-12.28-.24-5.18-1.9-8.3-5.53-7.61-3.63.69-4.63,5.9-3.63,11.76,1.38,8.13,5.54,11.76,6.23,20.23.49,6.05-2.94,13.66-12.45,15.04-9.3,1.35-15.91-4.32-16.6-10.55-.73-6.59,3.63-10.89,3.11-17.64-.52-6.75-4.01-10.17-5.88-17.29-2.77-10.55,1.21-19.02,7.78-22.65,14.75-8.15,22.83,3.64,35.97,1.56,10.9-1.73,23.35-18.16,33.03-19.54,8.23-1.17,13.83,4.67,15.04,14.01,1.21,9.34-4.74,15.26-15.39,14.01ZM24.75,159.04c0-2.29-1.86-4.15-4.15-4.15s-4.15,1.86-4.15,4.15,1.86,4.15,4.15,4.15,4.15-1.86,4.15-4.15ZM74.21,143.65c0-.96-.78-1.73-1.73-1.73s-1.73.77-1.73,1.73.77,1.73,1.73,1.73,1.73-.77,1.73-1.73Z"/>
        </g>
        <g>
          <path class="st2" d="M190.32,111.99c0,6.23-4.15,10.72-8.65,11.59-4.5.87-8.32-1.28-12.97,1.21-4.84,2.59-7.09,11.07-16.78,11.07-7.96,0-15.22-7.96-15.22-18.85,0-20.23,13.14-29.23,25.59-29.23,16.6,0,28.02,12.62,28.02,24.21ZM170.61,97.63c0-2.1-1.7-3.8-3.8-3.8s-3.8,1.7-3.8,3.8,1.7,3.8,3.8,3.8,3.8-1.7,3.8-3.8Z"/>
          <path class="st0" d="M211.07,20.16c-11.76-1.38-19.37.35-22.65,3.11-3.02,2.54-4.96,5.41-2.25,11.93,2.94,7.09,1.53,14.73-5.54,15.91-6.22,1.04-10.89-4.84-11.24-12.28-.24-5.18-1.9-8.3-5.53-7.61-3.63.69-4.63,5.9-3.63,11.76,1.38,8.13,5.54,11.76,6.23,20.23.49,6.05-2.94,13.66-12.45,15.04-9.3,1.35-15.91-4.32-16.6-10.55-.73-6.59,3.63-10.89,3.11-17.64-.52-6.75-4.01-10.17-5.88-17.29-2.77-10.55,1.21-19.02,7.78-22.65,14.75-8.15,22.83,3.64,35.97,1.56,10.9-1.73,23.35-18.16,33.03-19.54,8.23-1.17,13.83,4.67,15.04,14.01,1.21,9.34-4.74,15.26-15.39,14.01ZM168.88,20.68c0-2.29-1.86-4.15-4.15-4.15s-4.15,1.86-4.15,4.15,1.86,4.15,4.15,4.15,4.15-1.86,4.15-4.15ZM218.34,5.29c0-.96-.78-1.73-1.73-1.73s-1.73.77-1.73,1.73.77,1.73,1.73,1.73,1.73-.77,1.73-1.73Z"/>
        </g>
        <g>
          <path class="st2" d="M31.83,83.64c-13.96,1.99-21.17-13.33-17.67-20.33,3.67-7.33,12.12-4.17,19.5-4.17,9.67,0,16.37-7.57,20.42-2.25,4.25,5.58-5.01,24.29-22.25,26.75ZM32.36,66.16c0-1.24-1.01-2.25-2.25-2.25s-2.25,1.01-2.25,2.25,1.01,2.25,2.25,2.25,2.25-1.01,2.25-2.25Z"/>
          <path class="st1" d="M48.83.97c0,7.17,4.59,13.81-1,16.33-8.5,3.83-28-14.33-28-36.17,0-12,8.67-19,17.83-19,12.33,0,18,8.17,18,17.5s-6.83,13.14-6.83,21.33ZM43.42-4.4c0-1.15-.93-2.08-2.07-2.08s-2.08.93-2.08,2.08.93,2.08,2.08,2.08,2.07-.93,2.07-2.08Z"/>
          <path class="st2" d="M46.19,111.99c0,6.23-4.15,10.72-8.65,11.59-4.5.87-8.32-1.28-12.97,1.21-4.84,2.59-7.09,11.07-16.77,11.07-7.96,0-15.22-7.96-15.22-18.85,0-20.23,13.14-29.23,25.59-29.23,16.6,0,28.02,12.62,28.02,24.21ZM26.48,97.63c0-2.1-1.7-3.8-3.8-3.8s-3.8,1.7-3.8,3.8,1.7,3.8,3.8,3.8,3.8-1.7,3.8-3.8Z"/>
          <path class="st0" d="M45.5,88.3c0,1.34-1.08,2.42-2.42,2.42s-2.42-1.08-2.42-2.42,1.08-2.42,2.42-2.42,2.42,1.08,2.42,2.42Z"/>
          <path class="st2" d="M129.2,69.79c-3.19,4.68,1.04,10.72-1.38,15.22-2.42,4.5-6.74,5.02-9.86,2.6-3.63-2.83-3.41-6.64-8.3-8.82-5.53-2.46-17.98,2.25-19.71-7.26-.87-4.81,2.37-8.57,7.26-9.68,6.05-1.38,9.35-.18,15.39-3.11,6.05-2.94,11.24-8.99,22.14-12.11,10.41-2.97,16.07,1.56,16.6,5.88,1.04,8.47-17.13,9.95-22.14,17.29ZM126.95,62.35c0-1.24-1.01-2.25-2.25-2.25s-2.25,1.01-2.25,2.25,1.01,2.25,2.25,2.25,2.25-1.01,2.25-2.25Z"/>
          <path class="st1" d="M156.17,108.97c0,17.17-14.5,25.5-27,22.83-10.26-2.19-12.83-17.33-16.67-26.17-3.71-8.56-8.83-22.5-20.17-22.5s-12.83,14.5-23.67,14.5-24.5-15.67-24.5-39.67c0-14.67,9.8-31.46,20.83-30.67,11.67.83,4.5,19.67,15.33,19.67,9.5,0,7.86-16.26,9.17-23.33,1.67-9,6.83-14.17,18.5-13.17,14.44,1.24,22.33,13.5,18.87,23.34-4.03,11.45-23.87,17.32-21.54,30.49,1.35,7.59,13,12,26,16.17,14.53,4.66,24.83,11.33,24.83,28.5ZM111.21,33.13c0,1.82,1.47,3.29,3.29,3.29s3.29-1.47,3.29-3.29-1.47-3.29-3.29-3.29-3.29,1.47-3.29,3.29ZM64.52,58.03c0-.96-.77-1.73-1.73-1.73s-1.73.78-1.73,1.73.78,1.73,1.73,1.73,1.73-.77,1.73-1.73ZM81.99,68.75c0-2.1-1.7-3.8-3.8-3.8s-3.8,1.7-3.8,3.8,1.71,3.8,3.8,3.8,3.8-1.7,3.8-3.8ZM101.88,53.19c0-.86-.7-1.56-1.56-1.56s-1.56.7-1.56,1.56.7,1.56,1.56,1.56,1.56-.7,1.56-1.56ZM131.52,107.88c0-1.75-1.42-3.17-3.17-3.17s-3.17,1.42-3.17,3.17,1.42,3.17,3.17,3.17,3.17-1.42,3.17-3.17Z"/>
          <path class="st2" d="M123.53,24.47c-7.87,2.74-19.44-15.3-17.67-27.02,1.24-8.23,7.12-13.19,13.09-14.22,7.53-1.3,12.9,2.6,13.3,7.24.55,6.31-3.63,7.52-4.22,14.96-.56,7.13,3.69,16.19-4.49,19.03ZM119.74-3.04c0-1.43-1.16-2.59-2.59-2.59s-2.59,1.16-2.59,2.59,1.16,2.59,2.59,2.59,2.59-1.16,2.59-2.59Z"/>
          <path class="st1" d="M19.39,2c0,1.43-1.16,2.59-2.59,2.59s-2.59-1.16-2.59-2.59,1.16-2.59,2.59-2.59,2.59,1.16,2.59,2.59Z"/>
          <path class="st1" d="M153.38,88.74c0-8.41-5.08-15.23-11.34-15.23s-11.34,6.82-11.34,15.23,5.08,12.44,11.34,12.44,11.34-4.03,11.34-12.44Z"/>
          <path class="st2" d="M84.61-5.72c.74,8.1,12.67,7.02,17.9,14.21,10.52,14.47-1.22,46.37-21.63,46.37-11.74,0-24.22-9.72-24.22-29.22,0-15.83,10.17-21.5,8.25-42.17-1.01-10.83-12.5-20.34-12.5-34.75,0-5.92,3.59-13.45,11.55-13.45,7.05,0,10.82,5.95,10.82,12.9s-5.38,15.74,1.37,19.05c5.24,2.57,13.21-4.77,19.5-6.75,5.19-1.64,12.39.22,14.75,8.5,2.53,8.88-3.25,14.75-11.59,16.69-6.32,1.48-14.8,2.17-14.21,8.61ZM68.62-36.28c0-1.82-1.47-3.29-3.29-3.29s-3.29,1.47-3.29,3.29,1.47,3.29,3.29,3.29,3.29-1.47,3.29-3.29ZM94.61-26.59c1.29,0,2.33-1.04,2.33-2.33s-1.04-2.33-2.33-2.33-2.33,1.04-2.33,2.33,1.04,2.33,2.33,2.33ZM74.62,33.09c0-1.82-1.47-3.29-3.29-3.29s-3.29,1.47-3.29,3.29,1.47,3.29,3.29,3.29,3.29-1.47,3.29-3.29Z"/>
          <path class="st0" d="M66.94,20.16c-11.76-1.38-19.37.35-22.65,3.11-3.02,2.54-4.95,5.41-2.25,11.93,2.94,7.09,1.53,14.73-5.54,15.91-6.22,1.04-10.89-4.84-11.24-12.28-.24-5.18-1.9-8.3-5.53-7.61-3.63.69-4.63,5.9-3.63,11.76,1.38,8.13,5.54,11.76,6.23,20.23.49,6.05-2.94,13.66-12.45,15.04-9.3,1.35-15.91-4.32-16.6-10.55-.73-6.59,3.63-10.89,3.11-17.64-.52-6.75-4.01-10.17-5.88-17.29-2.77-10.55,1.21-19.02,7.78-22.65,14.75-8.15,22.83,3.64,35.97,1.56,10.9-1.73,23.35-18.16,33.03-19.54,8.23-1.17,13.83,4.67,15.04,14.01,1.21,9.34-4.74,15.26-15.39,14.01ZM24.75,20.68c0-2.29-1.86-4.15-4.15-4.15s-4.15,1.86-4.15,4.15,1.86,4.15,4.15,4.15,4.15-1.86,4.15-4.15ZM74.21,5.29c0-.96-.78-1.73-1.73-1.73s-1.73.77-1.73,1.73.77,1.73,1.73,1.73,1.73-.77,1.73-1.73Z"/>
          <path class="st0" d="M130.24,42.47c0,.76-.62,1.38-1.38,1.38s-1.38-.62-1.38-1.38.62-1.38,1.38-1.38,1.38.62,1.38,1.38Z"/>
          <path class="st5" d="M135.77,4.08c0,1.24-1.01,2.25-2.25,2.25s-2.25-1.01-2.25-2.25,1.01-2.25,2.25-2.25,2.25,1.01,2.25,2.25Z"/>
          <path class="st7" d="M52.24,27.25c0,.67-.54,1.21-1.21,1.21s-1.21-.54-1.21-1.21.54-1.21,1.21-1.21,1.21.54,1.21,1.21Z"/>
          <path class="st7" d="M48.61,95.73c0,.76-.62,1.38-1.38,1.38s-1.38-.62-1.38-1.38.62-1.38,1.38-1.38,1.38.62,1.38,1.38Z"/>
          <path class="st1" d="M133.18,73.77c0,.67-.54,1.21-1.21,1.21s-1.21-.54-1.21-1.21.54-1.21,1.21-1.21,1.21.54,1.21,1.21Z"/>
          <path class="st3" d="M95.89,91.69c0,1.88-1.53,3.41-3.41,3.41s-3.41-1.53-3.41-3.41,1.53-3.41,3.41-3.41,3.41,1.53,3.41,3.41Z"/>
          <path class="st1" d="M100.87,131.55c0,1.16-.94,2.1-2.1,2.1s-2.1-.94-2.1-2.1.94-2.1,2.1-2.1,2.1.94,2.1,2.1Z"/>
          <path class="st1" d="M62.07,125.25c0,.87-.7,1.57-1.57,1.57s-1.57-.7-1.57-1.57.71-1.57,1.57-1.57,1.57.71,1.57,1.57Z"/>
          <circle class="st3" cx="133.12" cy="11.21" r="2.62"/>
          <circle class="st2" cx="123.15" cy="46.07" r="2.36"/>
          <path class="st5" d="M27.72,52.63c0,1.45-1.17,2.62-2.62,2.62s-2.62-1.17-2.62-2.62,1.17-2.62,2.62-2.62,2.62,1.17,2.62,2.62Z"/>
          <path class="st2" d="M22.74,45.55c0,.72-.59,1.31-1.31,1.31s-1.31-.59-1.31-1.31.59-1.31,1.31-1.31,1.31.59,1.31,1.31Z"/>
          <path class="st1" d="M86.97,97.46c0,.87-.71,1.57-1.57,1.57s-1.57-.7-1.57-1.57.7-1.57,1.57-1.57,1.57.71,1.57,1.57Z"/>
        </g>
        <g>
          <path class="st2" d="M-14.93,69.79c-3.19,4.68,1.04,10.72-1.38,15.22-2.42,4.5-6.74,5.02-9.86,2.6-3.63-2.83-3.41-6.64-8.3-8.82-5.53-2.46-17.98,2.25-19.71-7.26-.88-4.81,2.38-8.57,7.26-9.68,6.05-1.38,9.35-.18,15.39-3.11,6.05-2.94,11.24-8.99,22.14-12.11,10.41-2.97,16.07,1.56,16.6,5.88,1.04,8.47-17.13,9.95-22.14,17.29ZM-17.18,62.35c0-1.24-1.01-2.25-2.25-2.25s-2.25,1.01-2.25,2.25,1.01,2.25,2.25,2.25,2.25-1.01,2.25-2.25Z"/>
          <path class="st1" d="M12.04,108.97c0,17.17-14.5,25.5-27,22.83-10.26-2.19-12.83-17.33-16.67-26.17-3.71-8.56-8.83-22.5-20.17-22.5s-12.83,14.5-23.67,14.5-24.5-15.67-24.5-39.67c0-14.67,9.8-31.46,20.83-30.67,11.67.83,4.5,19.67,15.33,19.67,9.5,0,7.86-16.26,9.17-23.33,1.67-9,6.83-14.17,18.5-13.17,14.44,1.24,22.33,13.5,18.87,23.34-4.03,11.45-23.87,17.32-21.54,30.49,1.35,7.59,13,12,26,16.17,14.53,4.66,24.83,11.33,24.83,28.5ZM-32.91,33.13c0,1.82,1.47,3.29,3.29,3.29s3.29-1.47,3.29-3.29-1.47-3.29-3.29-3.29-3.29,1.47-3.29,3.29ZM-79.61,58.03c0-.96-.77-1.73-1.73-1.73s-1.73.78-1.73,1.73.78,1.73,1.73,1.73,1.73-.77,1.73-1.73ZM-62.14,68.75c0-2.1-1.7-3.8-3.8-3.8s-3.8,1.7-3.8,3.8,1.71,3.8,3.8,3.8,3.8-1.7,3.8-3.8ZM-42.25,53.19c0-.86-.7-1.56-1.56-1.56s-1.56.7-1.56,1.56.7,1.56,1.56,1.56,1.56-.7,1.56-1.56ZM-12.61,107.88c0-1.75-1.42-3.17-3.17-3.17s-3.17,1.42-3.17,3.17,1.42,3.17,3.17,3.17,3.17-1.42,3.17-3.17Z"/>
          <path class="st1" d="M9.26,88.74c0-8.41-5.08-15.23-11.34-15.23s-11.34,6.82-11.34,15.23,5.08,12.44,11.34,12.44,11.34-4.03,11.34-12.44Z"/>
        </g>
      </g>
    </pattern>
  </defs>
  <path class="st6" d="M8.28,101.75h13.9s-.28,11.11,7.66,11.11,7.94-10.69,7.94-10.69h13.9s0,26.71-21.84,26.71-21.56-27.14-21.56-27.14Z"/>
  <path class="st6" d="M23.88,57.66s-1.99,41.84,11.91,41.84h15.88s9.93,0,9.38-41.84h-12.44s2.42,20.93-6.19,20.7c-8.61-.23-5.79-20.7-5.79-20.7h-12.75Z"/>
  <path class="st6" d="M23.88,27.37l-.1,28.04h12.84s3.23-27.8-12.75-28.04Z"/>
  <path class="st6" d="M8,99.5h13.9V27.37s-5.96-5.34-13.9,0v72.13Z"/>
  <path class="st6" d="M75.5,64.77v-7.11c-.69-.45-1.35-.99-1.97-1.61-.12-.12-.21-.26-.33-.38-2.27,1.32-5.93,2.73-9.62,1.08v42.74h11.91s-1.99-26.71,5.96-26.71,5.96,26.71,5.96,26.71h9.93s7.94-48.09-21.84-34.73Z"/>
  <path class="st6" d="M91.38,62.1s7.94-16.03,21.84-8.01c13.9,8.01-11.91,32.06-11.91,32.06,0,0,1.99-5.34-1.99-13.36-2.46-4.97,0,0,0,0,0,0,5.96,0,7.94-5.34,2.81-7.56-9.93,2.67-9.93,2.67,0,0,0-5.34-5.96-8.01Z"/>
  <path class="st6" d="M116.07,78.97c-.94-.42-1.88-.84-2.71-1.58-.03-.03-.05-.07-.07-.09l-11.98,11.52c-1.99,2.67,0,8.01,0,8.01,11.91,10.69,17.87-5.34,17.87-5.34l-3.1-12.51Z"/>
  <path class="st6" d="M121.16,57.72s5.96-4.49,13.9,0v38.16s-5.96,4.49-13.9,0v-38.16Z"/>
  <path class="st6" d="M137.04,99.5h13.9V27.37s-5.96-5.34-13.9,0v72.13Z"/>
  <path class="st6" d="M151,101.86h-13.9s.28,11.11-7.66,11.11-7.94-10.69-7.94-10.69h-13.9s0,26.71,21.84,26.71,21.56-27.14,21.56-27.14Z"/>
  <path class="st6" d="M135.05,27.37l.1,26.71h-13.99s-2.08-26.48,13.9-26.71Z"/>
</svg>